<svg width="121" height="121" viewBox="0 0 121 121" fill="none" xmlns="http://www.w3.org/2000/svg">
<path d="M56.271 115.547C55.6903 115.547 55.1142 115.445 54.5683 115.247C53.5154 114.861 52.6223 114.134 52.0321 113.18C51.4419 112.227 51.1887 111.103 51.3131 109.988L55.1693 74.482H25.6723C24.7625 74.4833 23.8695 74.2368 23.0893 73.769C22.309 73.3011 21.671 72.6295 21.2436 71.8263C20.8163 71.0231 20.6158 70.1187 20.6638 69.2101C20.7117 68.3016 21.0062 67.4233 21.5157 66.6695L61.0286 7.57545C61.6535 6.65067 62.5695 5.96116 63.631 5.61638C64.6926 5.27161 65.8389 5.29133 66.8879 5.67242C67.8964 6.04684 68.7576 6.73604 69.3438 7.638C69.9301 8.53997 70.2104 9.60674 70.1431 10.6804L66.287 46.4373H95.7839C96.6937 46.4359 97.5867 46.6824 98.367 47.1503C99.1472 47.6182 99.7853 48.2898 100.213 49.093C100.64 49.8962 100.84 50.8006 100.793 51.7092C100.745 52.6177 100.45 53.496 99.9406 54.2498L60.4277 113.344C59.9683 114.023 59.349 114.58 58.6242 114.964C57.8994 115.348 57.0914 115.549 56.271 115.547Z" fill="#231F20"/>
</svg>
