<svg width="50" height="36" viewBox="0 0 50 36" fill="none" xmlns="http://www.w3.org/2000/svg">
<path d="M3.09647 14.9508C1.38635 14.9508 0 13.5645 0 11.8543C0 10.7477 0.580558 9.77662 1.4537 9.22907L9.77584 0.906926C10.9851 -0.302309 12.9457 -0.302309 14.1549 0.906926C15.3642 2.11619 15.3642 4.07675 14.1549 5.28602L10.6831 8.75788L34.0614 8.75785C35.7712 8.75785 37.1578 10.1442 37.1578 11.8543C37.1578 13.5645 35.7712 14.9508 34.0614 14.9508H3.24959C3.22135 14.9511 3.19311 14.9511 3.16487 14.9508H3.09647Z" fill="white"/>
<path d="M46.493 21.0453C48.2032 21.0453 49.5895 22.4316 49.5895 24.1417C49.5895 25.2484 49.0092 26.2195 48.136 26.7669L39.814 35.089C38.6045 36.2985 36.6441 36.2985 35.4346 35.089C34.2254 33.8798 34.2254 31.9192 35.4346 30.71L38.9067 27.2382H15.5285C13.8183 27.2382 12.432 25.8519 12.432 24.1417C12.432 22.4316 13.8183 21.0453 15.5285 21.0453H46.3401C46.3683 21.045 46.3964 21.045 46.4249 21.0453H46.493Z" fill="white"/>
</svg>
