<svg width="69" height="69" viewBox="0 0 69 69" fill="none" xmlns="http://www.w3.org/2000/svg">
<path d="M36.99 8.62512L64.3772 56.0626C64.6295 56.4997 64.7624 56.9954 64.7624 57.5001C64.7624 58.0048 64.6296 58.5005 64.3772 58.9376C64.1249 59.3746 63.762 59.7376 63.3249 59.9899C62.8879 60.2422 62.3921 60.3751 61.8875 60.3751H7.11296C6.6083 60.3751 6.11253 60.2422 5.67549 59.9899C5.23844 59.7376 4.87552 59.3746 4.6232 58.9376C4.37087 58.5005 4.23803 58.0048 4.23804 57.5001C4.23804 56.9954 4.37088 56.4997 4.62321 56.0626L32.0105 8.62512C32.2628 8.1881 32.6257 7.82519 33.0628 7.57288C33.4998 7.32057 33.9956 7.18774 34.5002 7.18774C35.0049 7.18774 35.5006 7.32057 35.9377 7.57288C36.3747 7.82519 36.7376 8.1881 36.99 8.62512ZM31.6252 46.0001V51.7501H37.3752V46.0001H31.6252ZM31.6252 25.8751V40.2501H37.3752V25.8751H31.6252Z" fill="#FF3030"/>
</svg>
